<svg xmlns="http://www.w3.org/2000/svg" viewBox="0 0 256 256" width="256" height="256">
  <!--
    Variant 5 — Da Vinci Faithful — MONO (black on transparent)
    Same figure as mark-color but all ink in pure #000000, no background
    Fine-pen scientific illustration aesthetic
  -->

  <!-- ── GEOMETRIC FRAMEWORK ── -->
  <rect x="20" y="24" width="216" height="216" fill="none" stroke="#000000" stroke-width="1.2" opacity="0.7"/>
  <circle cx="128" cy="132" r="108" fill="none" stroke="#000000" stroke-width="1.2" opacity="0.7"/>

  <!-- Navel accent (mono: small filled circle) -->
  <circle cx="128" cy="132" r="2.2" fill="#000000" opacity="0.85"/>

  <!-- ── HEAD ── -->
  <ellipse cx="128" cy="39" rx="17" ry="19" fill="none" stroke="#000000" stroke-width="1.7" stroke-linecap="round"/>
  <path d="M 113 30 Q 109 22 115 18 Q 121 14 128 13 Q 135 13 141 18 Q 147 22 143 30"
        fill="none" stroke="#000000" stroke-width="1.5" stroke-linecap="round"/>
  <!-- Hair left -->
  <path d="M 111 24 Q 107 27 108 31" fill="none" stroke="#000000" stroke-width="0.9" stroke-linecap="round"/>
  <path d="M 112 19 Q 108 22 107 27" fill="none" stroke="#000000" stroke-width="0.9" stroke-linecap="round"/>
  <path d="M 116 15 Q 112 17 110 21" fill="none" stroke="#000000" stroke-width="0.9" stroke-linecap="round"/>
  <path d="M 122 14 Q 119 15 117 18" fill="none" stroke="#000000" stroke-width="0.9" stroke-linecap="round"/>
  <path d="M 111 33 Q 108 35 109 39 Q 108 43 111 45" fill="none" stroke="#000000" stroke-width="1.0" stroke-linecap="round"/>
  <path d="M 109 38 Q 106 41 108 46 Q 107 50 110 52" fill="none" stroke="#000000" stroke-width="0.9" stroke-linecap="round"/>
  <!-- Hair right -->
  <path d="M 145 24 Q 149 27 148 31" fill="none" stroke="#000000" stroke-width="0.9" stroke-linecap="round"/>
  <path d="M 144 19 Q 148 22 149 27" fill="none" stroke="#000000" stroke-width="0.9" stroke-linecap="round"/>
  <path d="M 140 15 Q 144 17 146 21" fill="none" stroke="#000000" stroke-width="0.9" stroke-linecap="round"/>
  <path d="M 134 14 Q 137 15 139 18" fill="none" stroke="#000000" stroke-width="0.9" stroke-linecap="round"/>
  <path d="M 145 33 Q 148 35 147 39 Q 148 43 145 45" fill="none" stroke="#000000" stroke-width="1.0" stroke-linecap="round"/>
  <path d="M 147 38 Q 150 41 148 46 Q 149 50 146 52" fill="none" stroke="#000000" stroke-width="0.9" stroke-linecap="round"/>

  <!-- Face -->
  <path d="M 120 39 Q 122 37 124 39 Q 122 41 120 39" fill="#000000" opacity="0.8"/>
  <path d="M 132 39 Q 134 37 136 39 Q 134 41 132 39" fill="#000000" opacity="0.8"/>
  <path d="M 119 36 Q 122 34 125 36" fill="none" stroke="#000000" stroke-width="0.8" stroke-linecap="round" opacity="0.7"/>
  <path d="M 131 36 Q 134 34 137 36" fill="none" stroke="#000000" stroke-width="0.8" stroke-linecap="round" opacity="0.7"/>
  <path d="M 128 40 L 128 46 Q 126 48 125 47 M 128 46 Q 130 48 131 47" fill="none" stroke="#000000" stroke-width="0.8" stroke-linecap="round"/>
  <path d="M 124 51 Q 128 53 132 51" fill="none" stroke="#000000" stroke-width="0.9" stroke-linecap="round"/>

  <!-- Neck -->
  <path d="M 123 56 L 121 65" fill="none" stroke="#000000" stroke-width="1.4" stroke-linecap="round"/>
  <path d="M 133 56 L 135 65" fill="none" stroke="#000000" stroke-width="1.4" stroke-linecap="round"/>

  <!-- Torso -->
  <path d="M 121 65 Q 90 68 76 75 Q 66 80 68 95 Q 70 108 76 118 Q 82 128 86 140 Q 90 155 88 170 Q 87 180 90 190 L 115 192"
        fill="none" stroke="#000000" stroke-width="1.7" stroke-linecap="round" stroke-linejoin="round"/>
  <path d="M 135 65 Q 166 68 180 75 Q 190 80 188 95 Q 186 108 180 118 Q 174 128 170 140 Q 166 155 168 170 Q 169 180 166 190 L 141 192"
        fill="none" stroke="#000000" stroke-width="1.7" stroke-linecap="round" stroke-linejoin="round"/>
  <path d="M 90 190 Q 128 196 166 190" fill="none" stroke="#000000" stroke-width="1.7" stroke-linecap="round"/>

  <!-- Pecs -->
  <path d="M 90 85 Q 100 90 110 88 Q 120 86 122 92 Q 118 100 108 102 Q 96 103 88 97 Q 82 92 90 85"
        fill="none" stroke="#000000" stroke-width="0.9" stroke-linecap="round" opacity="0.7"/>
  <path d="M 166 85 Q 156 90 146 88 Q 136 86 134 92 Q 138 100 148 102 Q 160 103 168 97 Q 174 92 166 85"
        fill="none" stroke="#000000" stroke-width="0.9" stroke-linecap="round" opacity="0.7"/>
  <path d="M 128 68 L 128 108" fill="none" stroke="#000000" stroke-width="0.7" stroke-linecap="round" opacity="0.4"/>
  <path d="M 121 68 Q 110 65 90 72" fill="none" stroke="#000000" stroke-width="1.0" stroke-linecap="round" opacity="0.6"/>
  <path d="M 135 68 Q 146 65 166 72" fill="none" stroke="#000000" stroke-width="1.0" stroke-linecap="round" opacity="0.6"/>

  <!-- Ribs -->
  <path d="M 100 100 Q 110 103 118 100" fill="none" stroke="#000000" stroke-width="0.6" stroke-linecap="round" opacity="0.35"/>
  <path d="M 96 108 Q 108 112 118 108" fill="none" stroke="#000000" stroke-width="0.6" stroke-linecap="round" opacity="0.30"/>
  <path d="M 94 116 Q 106 120 117 116" fill="none" stroke="#000000" stroke-width="0.6" stroke-linecap="round" opacity="0.25"/>
  <path d="M 156 100 Q 146 103 138 100" fill="none" stroke="#000000" stroke-width="0.6" stroke-linecap="round" opacity="0.35"/>
  <path d="M 160 108 Q 148 112 138 108" fill="none" stroke="#000000" stroke-width="0.6" stroke-linecap="round" opacity="0.30"/>
  <path d="M 162 116 Q 150 120 139 116" fill="none" stroke="#000000" stroke-width="0.6" stroke-linecap="round" opacity="0.25"/>

  <!-- Abs -->
  <path d="M 128 108 Q 128 120 128 132 Q 128 145 128 170" fill="none" stroke="#000000" stroke-width="0.7" stroke-linecap="round" opacity="0.4"/>
  <path d="M 116 116 Q 128 118 140 116" fill="none" stroke="#000000" stroke-width="0.6" stroke-linecap="round" opacity="0.3"/>
  <path d="M 112 126 Q 128 128 144 126" fill="none" stroke="#000000" stroke-width="0.6" stroke-linecap="round" opacity="0.3"/>
  <path d="M 110 138 Q 128 140 146 138" fill="none" stroke="#000000" stroke-width="0.6" stroke-linecap="round" opacity="0.25"/>

  <!-- Genitalia (anatomical, modest) -->
  <path d="M 122 192 Q 124 196 126 200 Q 128 202 130 200 Q 132 196 134 192"
        fill="none" stroke="#000000" stroke-width="0.9" stroke-linecap="round" opacity="0.55"/>
  <ellipse cx="128" cy="204" rx="3.5" ry="5" fill="none" stroke="#000000" stroke-width="0.8" opacity="0.5"/>
  <ellipse cx="124" cy="210" rx="3" ry="2.5" fill="none" stroke="#000000" stroke-width="0.7" opacity="0.38"/>
  <ellipse cx="132" cy="210" rx="3" ry="2.5" fill="none" stroke="#000000" stroke-width="0.7" opacity="0.38"/>

  <!-- Arms horizontal -->
  <path d="M 76 75 Q 68 72 60 72 Q 48 72 38 73 Q 28 74 20 75" fill="none" stroke="#000000" stroke-width="1.6" stroke-linecap="round"/>
  <path d="M 76 75 Q 68 78 60 78 Q 48 78 38 77 Q 28 76 20 75" fill="none" stroke="#000000" stroke-width="1.6" stroke-linecap="round"/>
  <path d="M 78 70 Q 72 64 66 67 Q 62 70 64 75 Q 66 80 72 80" fill="none" stroke="#000000" stroke-width="0.9" stroke-linecap="round" opacity="0.65"/>
  <path d="M 180 75 Q 188 72 196 72 Q 208 72 218 73 Q 228 74 236 75" fill="none" stroke="#000000" stroke-width="1.6" stroke-linecap="round"/>
  <path d="M 180 75 Q 188 78 196 78 Q 208 78 218 77 Q 228 76 236 75" fill="none" stroke="#000000" stroke-width="1.6" stroke-linecap="round"/>
  <path d="M 178 70 Q 184 64 190 67 Q 194 70 192 75 Q 190 80 184 80" fill="none" stroke="#000000" stroke-width="0.9" stroke-linecap="round" opacity="0.65"/>
  <!-- Hands horizontal -->
  <path d="M 20 75 L 13 74 M 20 75 L 13 72 M 20 75 L 13 75 M 20 75 L 13 77 M 20 75 L 14 79"
        stroke="#000000" stroke-width="0.9" stroke-linecap="round" opacity="0.75"/>
  <path d="M 236 75 L 243 74 M 236 75 L 243 72 M 236 75 L 243 75 M 236 75 L 243 77 M 236 75 L 242 79"
        stroke="#000000" stroke-width="0.9" stroke-linecap="round" opacity="0.75"/>

  <!-- Arms raised -->
  <path d="M 76 75 Q 70 70 62 63 Q 57 59 52 56" fill="none" stroke="#000000" stroke-width="1.5" stroke-linecap="round"/>
  <path d="M 76 75 Q 72 68 65 60 Q 60 56 55 54" fill="none" stroke="#000000" stroke-width="1.5" stroke-linecap="round"/>
  <path d="M 52 56 L 47 52 M 52 56 L 48 49 M 52 56 L 51 47 M 52 56 L 54 47 M 52 56 L 56 49"
        stroke="#000000" stroke-width="0.85" stroke-linecap="round" opacity="0.72"/>
  <path d="M 180 75 Q 186 70 194 63 Q 199 59 204 56" fill="none" stroke="#000000" stroke-width="1.5" stroke-linecap="round"/>
  <path d="M 180 75 Q 184 68 191 60 Q 196 56 201 54" fill="none" stroke="#000000" stroke-width="1.5" stroke-linecap="round"/>
  <path d="M 204 56 L 209 52 M 204 56 L 208 49 M 204 56 L 205 47 M 204 56 L 202 47 M 204 56 L 200 49"
        stroke="#000000" stroke-width="0.85" stroke-linecap="round" opacity="0.72"/>

  <!-- Legs together -->
  <path d="M 108 192 Q 107 204 106 214 Q 105 224 104 232 Q 105 237 110 240 Q 112 242 116 240"
        fill="none" stroke="#000000" stroke-width="1.6" stroke-linecap="round"/>
  <path d="M 115 192 Q 115 204 114 214 Q 113 226 112 232 Q 111 237 113 240"
        fill="none" stroke="#000000" stroke-width="1.6" stroke-linecap="round"/>
  <path d="M 148 192 Q 149 204 150 214 Q 151 224 152 232 Q 151 237 146 240 Q 144 242 140 240"
        fill="none" stroke="#000000" stroke-width="1.6" stroke-linecap="round"/>
  <path d="M 141 192 Q 141 204 142 214 Q 143 226 144 232 Q 145 237 143 240"
        fill="none" stroke="#000000" stroke-width="1.6" stroke-linecap="round"/>
  <path d="M 105 214 Q 107 211 110 214 Q 107 217 105 214" fill="none" stroke="#000000" stroke-width="0.7" opacity="0.5"/>
  <path d="M 151 214 Q 149 211 146 214 Q 149 217 151 214" fill="none" stroke="#000000" stroke-width="0.7" opacity="0.5"/>

  <!-- Legs spread -->
  <path d="M 102 190 Q 97 202 90 214 Q 84 224 80 228 Q 78 233 80 238 Q 82 241 86 240"
        fill="none" stroke="#000000" stroke-width="1.6" stroke-linecap="round"/>
  <path d="M 110 190 Q 106 202 100 214 Q 94 224 90 230 Q 87 235 88 240"
        fill="none" stroke="#000000" stroke-width="1.6" stroke-linecap="round"/>
  <path d="M 154 190 Q 159 202 166 214 Q 172 224 176 228 Q 178 233 176 238 Q 174 241 170 240"
        fill="none" stroke="#000000" stroke-width="1.6" stroke-linecap="round"/>
  <path d="M 146 190 Q 150 202 156 214 Q 162 224 166 230 Q 169 235 168 240"
        fill="none" stroke="#000000" stroke-width="1.6" stroke-linecap="round"/>
  <path d="M 90 214 Q 92 211 95 214 Q 92 217 90 214" fill="none" stroke="#000000" stroke-width="0.7" opacity="0.5"/>
  <path d="M 166 214 Q 164 211 161 214 Q 164 217 166 214" fill="none" stroke="#000000" stroke-width="0.7" opacity="0.5"/>

  <!-- Feet together -->
  <path d="M 104 240 Q 110 243 116 240 Q 116 244 114 246 Q 112 248 110 247 Q 108 248 106 246 Q 104 244 104 240"
        fill="none" stroke="#000000" stroke-width="1.0" stroke-linecap="round"/>
  <path d="M 106 246 L 105 249 M 108 247 L 108 250 M 110 247 L 110 250 M 112 246 L 112 249 M 114 245 L 115 248"
        stroke="#000000" stroke-width="0.7" stroke-linecap="round" opacity="0.65"/>
  <path d="M 140 240 Q 146 243 152 240 Q 152 244 150 246 Q 148 248 146 247 Q 144 248 142 246 Q 140 244 140 240"
        fill="none" stroke="#000000" stroke-width="1.0" stroke-linecap="round"/>
  <path d="M 142 246 L 141 249 M 144 247 L 144 250 M 146 247 L 146 250 M 148 246 L 148 249 M 150 245 L 151 248"
        stroke="#000000" stroke-width="0.7" stroke-linecap="round" opacity="0.65"/>

  <!-- Feet spread -->
  <path d="M 80 238 Q 86 241 90 238 Q 90 242 88 244 Q 86 246 84 245 Q 82 246 80 244 Q 79 242 80 238"
        fill="none" stroke="#000000" stroke-width="1.0" stroke-linecap="round"/>
  <path d="M 80 244 L 79 247 M 82 245 L 81 248 M 84 245 L 84 248 M 86 244 L 87 247 M 88 243 L 89 246"
        stroke="#000000" stroke-width="0.7" stroke-linecap="round" opacity="0.65"/>
  <path d="M 166 238 Q 170 241 176 238 Q 177 242 175 244 Q 173 246 171 245 Q 169 246 167 244 Q 166 242 166 238"
        fill="none" stroke="#000000" stroke-width="1.0" stroke-linecap="round"/>
  <path d="M 167 244 L 167 247 M 169 245 L 169 248 M 171 245 L 171 248 M 173 244 L 173 247 M 175 243 L 176 246"
        stroke="#000000" stroke-width="0.7" stroke-linecap="round" opacity="0.65"/>
</svg>
